<svg xmlns="http://www.w3.org/2000/svg">
  <symbol id='hero-check-icon' viewBox="0 0 39 37" fill="none" xmlns="http://www.w3.org/2000/svg">
    <g clip-path="url(#clip0_2002_6)">
    <path d="M18.5 1C28.165 1 36 8.83502 36 18.5C36 28.165 28.165 36 18.5 36C8.83502 36 1 28.165 1 18.5C1 8.83502 8.83502 1 18.5 1Z" stroke="#EFCFAD" stroke-width="2"/>
    <path d="M36.093 12.7722C35.569 11.1616 34.832 9.64832 33.9125 8.26562L17.7188 25.1324L17.7513 27.0095L18.5157 27.0046L36.093 12.7722Z" fill="#A4907D"/>
    <path d="M39 6C38.7631 4.77238 36.5 4.0001 36.5 4.0001C36.0497 3.55499 33.4503 6.05569 33 6.5008L18.073 22.0005L11.5 14.5005C11.049 14.0554 9.95066 13.5554 9.5 14.0005L7.36115 15.4298C6.91087 15.8745 6.91087 16.596 7.36115 17.0408L17.1214 26.6834C17.3815 26.9405 17.7341 27.0441 18.073 27.0041C18.4119 27.0437 18.7646 26.9405 19.0247 26.6834L37.0296 8.89449C37.4799 8.44938 39.2591 7.34266 39 6Z" fill="white"/>
    <path d="M19.0243 26.682L37.0292 8.89313C38.5 7.99972 39.4503 6.44483 39 5.99972C38.5497 5.55461 36.4909 6.74972 36.4909 6.74972L17.9698 24.9667L7.76964 15.024L7.36116 15.4281C6.91087 15.8728 6.91087 16.5943 7.36116 17.0391L17.121 26.682C17.3811 26.9391 17.7337 27.0427 18.0727 27.0028C18.4116 27.0427 18.7642 26.9395 19.0243 26.682Z" fill="#EFCFAD"/>
    </g>
    <defs>
    <clipPath id="clip0_2002_6">
    <rect width="39" height="37" fill="white"/>
    </clipPath>
    </defs>
  </symbol>

  <symbol id="pc-icon" viewBox="0 0 64 64" xmlns="http://www.w3.org/2000/svg" fill="none" stroke="white" stroke-width="2">
    <rect x="8" y="12" width="48" height="36" rx="2" ry="2" fill="none"/>
    <rect x="20" y="50" width="24" height="4" fill="white"/>
    <line x1="16" y1="54" x2="48" y2="54" stroke="white" stroke-width="2"/>
  </symbol>
  
  <symbol id="instagram-icon" viewBox="0 0 32 32" fill="none" xmlns="http://www.w3.org/2000/svg">
    <g stroke="currentColor" stroke-linecap="round" stroke-linejoin="round" stroke-width="2" clip-path="url(#a)">
    <path d="M21.332 5.332H10.665a5.333 5.333 0 0 0-5.333 5.333v10.667a5.333 5.333 0 0 0 5.333 5.333h10.667a5.333 5.333 0 0 0 5.333-5.333V10.665a5.333 5.333 0 0 0-5.333-5.333Z"/><path d="M16 20a4 4 0 1 0 0-8 4 4 0 0 0 0 8ZM22 10v.001"/></g><defs><clipPath id="a"><path fill="currentColor" d="M0 0h32v32H0z"/></clipPath></defs>
  </symbol>

  <symbol id='tik-tok-icon' viewBox="0 0 32 32" fill="none" xmlns="http://www.w3.org/2000/svg">
    <g clip-path="url(#a)"><path stroke="currentColor" stroke-linecap="round" stroke-linejoin="round" stroke-width="2" d="M12.001 15.999a5.334 5.334 0 1 0 5.334 5.333v-16A6.667 6.667 0 0 0 24 11.999"/></g><defs><clipPath id="a"><path fill="currentColor" d="M0 0h32v32H0z"/></clipPath></defs>
  </symbol>

  <symbol id="linked-in-icon" viewBox="0 0 32 32" fill="none" xmlns="http://www.w3.org/2000/svg">
    <g stroke="currentColor" stroke-linecap="round" stroke-linejoin="round" stroke-width="2" clip-path="url(#a)"><path d="M23.999 5.332h-16a2.667 2.667 0 0 0-2.667 2.667v16a2.667 2.667 0 0 0 2.667 2.666h16A2.667 2.667 0 0 0 26.665 24v-16A2.667 2.667 0 0 0 24 5.332ZM10.668 14.668v6.667M10.668 10.668v.013M16 21.335v-6.667"/><path d="M21.333 21.335v-4a2.667 2.667 0 1 0-5.333 0"/></g><defs><clipPath id="a"><path fill="currentColor" d="M0 0h32v32H0z"/></clipPath></defs>
  </symbol>

  <symbol id='facebook-icon' viewBox="0 0 32 32" fill="none" xmlns="http://www.w3.org/2000/svg">
    <g clip-path="url(#a)"><path stroke="currentColor" stroke-linecap="round" stroke-linejoin="round" stroke-width="2" d="M9.332 13.333v5.334h4V28h5.333v-9.333h4L24 13.333h-5.334v-2.666A1.333 1.333 0 0 1 20 9.333h4V4h-4a6.667 6.667 0 0 0-6.667 6.667v2.666h-4Z"/></g><defs><clipPath id="a"><path fill="currentColor" d="M0 0h32v32H0z"/></clipPath></defs>
  </symbol>

  <symbol id='telegram-icon' xmlns="http://www.w3.org/2000/svg" width="32" height="32" fill="none">
    <g clip-path="url(#a)">
    <path stroke="currentColor" stroke-linecap="round" stroke-linejoin="round" stroke-width="2" d="m20 13.332-5.333 5.333 8 8L28 5.332 4 14.665l5.333 2.667 2.667 8 4-5.333"/></g><defs><clipPath id="a"><path fill="currentColor" d="M0 0h32v32H0z"/></clipPath></defs>
  </symbol>

  <symbol id="youtube-icon" xmlns="http://www.w3.org/2000/svg" fill="none">
    <g stroke="currentColor" stroke-linecap="round" stroke-linejoin="round" stroke-width="2" clip-path="url(#a)"><path d="M22.667 6.668H9.333A5.333 5.333 0 0 0 4 12.001v8a5.333 5.333 0 0 0 5.333 5.334h13.334A5.333 5.333 0 0 0 28 20v-8a5.333 5.333 0 0 0-5.333-5.333Z"/><path d="m13.332 12 6.667 4-6.667 4v-8Z"/></g><defs><clipPath id="a"><path fill="currentColor" d="M0 0h32v32H0z"/></clipPath></defs>
  </symbol>
</svg>